<svg width="16" height="16" viewBox="0 0 16 16" fill="none" xmlns="http://www.w3.org/2000/svg">
<path fill-rule="evenodd" clip-rule="evenodd" d="M12 0C14.2091 0 16 1.79086 16 4V12C16 14.2091 14.2091 16 12 16H4C1.79086 16 0 14.2091 0 12V4C0 1.79086 1.79086 0 4 0H12ZM12.6406 4.23145C12.2164 3.87791 11.585 3.93519 11.2314 4.35938L6.99902 9.43652L4.76855 6.75977C4.41499 6.33549 3.78365 6.27827 3.35938 6.63184C2.93545 6.98538 2.8782 7.61586 3.23145 8.04004L6.23145 11.6406C6.42144 11.8686 6.70327 12 7 12C7.29674 12 7.57856 11.8686 7.76855 11.6406L12.7686 5.64062C13.1221 5.21638 13.0648 4.58502 12.6406 4.23145Z" fill="#7C3AED"/>
</svg>
