<svg width="20" height="20" viewBox="0 0 20 20" fill="none" xmlns="http://www.w3.org/2000/svg">
<path fill-rule="evenodd" clip-rule="evenodd" d="M10 2.5C14.1421 2.5 17.5 5.85786 17.5 10C17.5 14.1421 14.1421 17.5 10 17.5C5.85786 17.5 2.5 14.1421 2.5 10C2.5 5.85786 5.85786 2.5 10 2.5ZM13.0892 6.91081C12.7638 6.58543 12.2362 6.5854 11.9108 6.91081L10 8.82161L8.08919 6.91081C7.76375 6.58543 7.23623 6.5854 6.91081 6.91081C6.58539 7.23622 6.58543 7.76375 6.91081 8.08919L8.82161 10L6.91081 11.9108C6.5854 12.2362 6.58543 12.7638 6.91081 13.0892C7.23625 13.4146 7.76377 13.4146 8.08919 13.0892L10 11.1784L11.9108 13.0892C12.2362 13.4146 12.7638 13.4146 13.0892 13.0892C13.4146 12.7638 13.4146 12.2362 13.0892 11.9108L11.1784 10L13.0892 8.08919C13.4146 7.76377 13.4146 7.23625 13.0892 6.91081Z" fill="#A7ADB8"/>
</svg>
