<svg width="22" height="22" viewBox="0 0 22 22" fill="none" xmlns="http://www.w3.org/2000/svg">
<path d="M18.3333 10.0833C18.8396 10.0833 19.25 10.4937 19.25 11V16.5C19.25 18.0188 18.0188 19.25 16.5 19.25H5.5C3.98122 19.25 2.75 18.0188 2.75 16.5V11C2.75 10.4937 3.16041 10.0833 3.66667 10.0833C4.17293 10.0833 4.58333 10.4937 4.58333 11V16.5C4.58333 17.0063 4.99374 17.4167 5.5 17.4167H16.5C17.0063 17.4167 17.4167 17.0063 17.4167 16.5V11C17.4167 10.4937 17.8271 10.0833 18.3333 10.0833Z" fill="#E8E9ED"/>
<path d="M11 2.75C11.5063 2.75 11.9167 3.16041 11.9167 3.66667V12.4538L14.0186 10.3519C14.3765 9.99393 14.9568 9.99391 15.3148 10.3519C15.6727 10.7099 15.6727 11.2901 15.3148 11.6481L11.6481 15.3148L11.5783 15.3774C11.2183 15.6711 10.6875 15.6504 10.3519 15.3148L6.68522 11.6481C6.32724 11.2901 6.32724 10.7099 6.68522 10.3519C7.0432 9.99393 7.62347 9.99392 7.98145 10.3519L10.0833 12.4538V3.66667C10.0833 3.16041 10.4937 2.75 11 2.75Z" fill="#E8E9ED"/>
</svg>
