<svg width="22" height="22" viewBox="0 0 22 22" fill="none" xmlns="http://www.w3.org/2000/svg">
<path fill-rule="evenodd" clip-rule="evenodd" d="M8.2474 13.75C9.44942 13.75 10.4686 14.5222 10.8425 15.5968C10.8929 15.5882 10.9446 15.5833 10.9974 15.5833H17.4141C17.9203 15.5833 18.3307 15.9937 18.3307 16.5C18.3307 17.0063 17.9203 17.4167 17.4141 17.4167H10.9974C10.9445 17.4167 10.8929 17.4109 10.8425 17.4023C10.4688 18.4774 9.44972 19.25 8.2474 19.25C7.04497 19.25 6.02503 18.4775 5.65137 17.4023C5.60123 17.4108 5.54995 17.4167 5.4974 17.4167H4.58073C4.07447 17.4167 3.66406 17.0063 3.66406 16.5C3.66406 15.9937 4.07447 15.5833 4.58073 15.5833H5.4974C5.5499 15.5833 5.60128 15.5883 5.65137 15.5968C6.02526 14.522 7.04527 13.75 8.2474 13.75ZM8.2474 15.5833C7.74113 15.5833 7.33073 15.9937 7.33073 16.5C7.33073 17.0063 7.74113 17.4167 8.2474 17.4167C8.75366 17.4167 9.16406 17.0063 9.16406 16.5C9.16406 15.9937 8.75366 15.5833 8.2474 15.5833Z" fill="#E8E9ED"/>
<path fill-rule="evenodd" clip-rule="evenodd" d="M13.7474 8.25C14.9498 8.25 15.9698 9.02249 16.3434 10.0977C16.3936 10.0892 16.4448 10.0833 16.4974 10.0833H17.4141C17.9203 10.0833 18.3307 10.4937 18.3307 11C18.3307 11.5063 17.9203 11.9167 17.4141 11.9167H16.4974C16.4449 11.9167 16.3935 11.9117 16.3434 11.9032C15.9695 12.978 14.9495 13.75 13.7474 13.75C12.5454 13.75 11.5262 12.9778 11.1523 11.9032C11.1019 11.9118 11.0502 11.9167 10.9974 11.9167H4.58073C4.07447 11.9167 3.66406 11.5063 3.66406 11C3.66406 10.4937 4.07447 10.0833 4.58073 10.0833H10.9974C11.0503 10.0833 11.1019 10.0891 11.1523 10.0977C11.526 9.02264 12.5451 8.25 13.7474 8.25ZM13.7474 10.0833C13.2411 10.0833 12.8307 10.4937 12.8307 11C12.8307 11.5063 13.2411 11.9167 13.7474 11.9167C14.2537 11.9167 14.6641 11.5063 14.6641 11C14.6641 10.4937 14.2537 10.0833 13.7474 10.0833Z" fill="#E8E9ED"/>
<path fill-rule="evenodd" clip-rule="evenodd" d="M8.2474 2.75C9.44942 2.75 10.4686 3.52216 10.8425 4.59676C10.8929 4.58819 10.9446 4.58333 10.9974 4.58333H17.4141C17.9203 4.58333 18.3307 4.99374 18.3307 5.5C18.3307 6.00626 17.9203 6.41667 17.4141 6.41667H10.9974C10.9445 6.41667 10.8929 6.41093 10.8425 6.40234C10.4688 7.47736 9.44972 8.25 8.2474 8.25C7.04497 8.25 6.02503 7.47751 5.65137 6.40234C5.60123 6.41084 5.54995 6.41667 5.4974 6.41667H4.58073C4.07447 6.41667 3.66406 6.00626 3.66406 5.5C3.66406 4.99374 4.07447 4.58333 4.58073 4.58333H5.4974C5.5499 4.58333 5.60128 4.58828 5.65137 4.59676C6.02526 3.52202 7.04527 2.75 8.2474 2.75ZM8.2474 4.58333C7.74113 4.58333 7.33073 4.99374 7.33073 5.5C7.33073 6.00626 7.74113 6.41667 8.2474 6.41667C8.75366 6.41667 9.16406 6.00626 9.16406 5.5C9.16406 4.99374 8.75366 4.58333 8.2474 4.58333Z" fill="#E8E9ED"/>
</svg>
