<svg width="22" height="22" viewBox="0 0 22 22" fill="none" xmlns="http://www.w3.org/2000/svg">
<path fill-rule="evenodd" clip-rule="evenodd" d="M8.2513 13.75C9.45332 13.75 10.4725 14.5222 10.8464 15.5968C10.8968 15.5882 10.9485 15.5833 11.0013 15.5833H17.418C17.9242 15.5833 18.3346 15.9937 18.3346 16.5C18.3346 17.0063 17.9242 17.4167 17.418 17.4167H11.0013C10.9484 17.4167 10.8968 17.4109 10.8464 17.4023C10.4727 18.4774 9.45362 19.25 8.2513 19.25C7.04888 19.25 6.02894 18.4775 5.65527 17.4023C5.60514 17.4108 5.55386 17.4167 5.5013 17.4167H4.58464C4.07837 17.4167 3.66797 17.0063 3.66797 16.5C3.66797 15.9937 4.07837 15.5833 4.58464 15.5833H5.5013C5.5538 15.5833 5.60518 15.5883 5.65527 15.5968C6.02917 14.522 7.04918 13.75 8.2513 13.75ZM8.2513 15.5833C7.74504 15.5833 7.33464 15.9937 7.33464 16.5C7.33464 17.0063 7.74504 17.4167 8.2513 17.4167C8.75756 17.4167 9.16797 17.0063 9.16797 16.5C9.16797 15.9937 8.75756 15.5833 8.2513 15.5833Z" fill="#272C36"/>
<path fill-rule="evenodd" clip-rule="evenodd" d="M13.7513 8.25C14.9537 8.25 15.9737 9.02249 16.3473 10.0977C16.3975 10.0892 16.4487 10.0833 16.5013 10.0833H17.418C17.9242 10.0833 18.3346 10.4937 18.3346 11C18.3346 11.5063 17.9242 11.9167 17.418 11.9167H16.5013C16.4488 11.9167 16.3974 11.9117 16.3473 11.9032C15.9734 12.978 14.9534 13.75 13.7513 13.75C12.5493 13.75 11.5301 12.9778 11.1562 11.9032C11.1058 11.9118 11.0541 11.9167 11.0013 11.9167H4.58464C4.07837 11.9167 3.66797 11.5063 3.66797 11C3.66797 10.4937 4.07837 10.0833 4.58464 10.0833H11.0013C11.0542 10.0833 11.1058 10.0891 11.1562 10.0977C11.5299 9.02264 12.549 8.25 13.7513 8.25ZM13.7513 10.0833C13.245 10.0833 12.8346 10.4937 12.8346 11C12.8346 11.5063 13.245 11.9167 13.7513 11.9167C14.2576 11.9167 14.668 11.5063 14.668 11C14.668 10.4937 14.2576 10.0833 13.7513 10.0833Z" fill="#272C36"/>
<path fill-rule="evenodd" clip-rule="evenodd" d="M8.2513 2.75C9.45332 2.75 10.4725 3.52216 10.8464 4.59676C10.8968 4.58819 10.9485 4.58333 11.0013 4.58333H17.418C17.9242 4.58333 18.3346 4.99374 18.3346 5.5C18.3346 6.00626 17.9242 6.41667 17.418 6.41667H11.0013C10.9484 6.41667 10.8968 6.41093 10.8464 6.40234C10.4727 7.47736 9.45362 8.25 8.2513 8.25C7.04888 8.25 6.02894 7.47751 5.65527 6.40234C5.60514 6.41084 5.55386 6.41667 5.5013 6.41667H4.58464C4.07837 6.41667 3.66797 6.00626 3.66797 5.5C3.66797 4.99374 4.07837 4.58333 4.58464 4.58333H5.5013C5.5538 4.58333 5.60518 4.58828 5.65527 4.59676C6.02917 3.52202 7.04918 2.75 8.2513 2.75ZM8.2513 4.58333C7.74504 4.58333 7.33464 4.99374 7.33464 5.5C7.33464 6.00626 7.74504 6.41667 8.2513 6.41667C8.75756 6.41667 9.16797 6.00626 9.16797 5.5C9.16797 4.99374 8.75756 4.58333 8.2513 4.58333Z" fill="#272C36"/>
</svg>
