<svg width="16" height="16" viewBox="0 0 16 16" fill="none" xmlns="http://www.w3.org/2000/svg">
<g clip-path="url(#clip0_2983_6931)">
<path d="M10.9193 2C13.0113 2 14.6673 3.63332 14.6673 5.72135C14.6673 6.9992 14.0864 8.14354 13.1048 9.33398C12.1539 10.4873 10.7734 12.0694 9.05925 13.6133L9.05794 13.6146L8.44531 14.1634C8.19149 14.3907 7.80687 14.3899 7.55404 14.1615L6.93945 13.6074C5.43975 12.2582 4.19696 10.8798 3.27279 9.78385L2.89648 9.33268C1.91475 8.14336 1.33401 6.99918 1.33398 5.72135C1.33398 3.63332 2.98998 2 5.08203 2C6.19316 2.00009 7.26132 2.48188 8.00065 3.25716C8.73998 2.48188 9.80814 2.00009 10.9193 2Z" fill="#37383C" fill-opacity="0.61" stroke="white"/>
</g>
<defs>
<clipPath id="clip0_2983_6931">
<rect width="16" height="16" fill="white"/>
</clipPath>
</defs>
</svg>
