<svg width="20" height="20" viewBox="0 0 20 20" fill="none" xmlns="http://www.w3.org/2000/svg">
<path d="M10 7C11.6569 7 13 8.34315 13 10C13 11.6569 11.6569 13 10 13C8.34315 13 7 11.6569 7 10C7 8.34315 8.34315 7 10 7Z" fill="#0C0E12"/>
<path fill-rule="evenodd" clip-rule="evenodd" d="M11 2.06348C14.6185 2.51479 17.4842 5.3815 17.9355 9H19C19.5523 9 20 9.44771 20 10C20 10.5523 19.5523 11 19 11H17.9355C17.4842 14.6185 14.6185 17.4842 11 17.9355V19C11 19.5523 10.5523 20 10 20C9.44771 20 9 19.5523 9 19V17.9355C5.38154 17.4842 2.51581 14.6185 2.06445 11H1C0.447715 11 0 10.5523 0 10C0 9.44771 0.447715 9 1 9H2.06445C2.51582 5.3815 5.38148 2.51479 9 2.06348V1C9 0.447715 9.44771 0 10 0C10.5523 0 11 0.447715 11 1V2.06348ZM10 4C6.68629 4 4 6.68629 4 10C4 13.3137 6.68629 16 10 16C13.3137 16 16 13.3137 16 10C16 6.68629 13.3137 4 10 4Z" fill="#0C0E12"/>
</svg>
