<svg width="16" height="16" viewBox="0 0 16 16" fill="none" xmlns="http://www.w3.org/2000/svg">
<path d="M13.9986 4C14.0378 4 14.076 4.00395 14.1132 4.01042C14.1399 4.01506 14.1666 4.02073 14.1927 4.02865C14.2057 4.03261 14.2184 4.03759 14.2311 4.04232C14.2376 4.04473 14.2442 4.04686 14.2506 4.04948C14.261 4.05372 14.2711 4.05841 14.2812 4.06315C14.311 4.0771 14.3399 4.09338 14.3678 4.11198C14.4422 4.16158 14.5061 4.2255 14.5553 4.30013C14.5845 4.34433 14.6068 4.39157 14.6243 4.4401C14.65 4.51097 14.6653 4.58695 14.6653 4.66667V7.33333C14.6653 7.7015 14.3668 7.99997 13.9986 8C13.6305 8 13.332 7.70152 13.332 7.33333V6.27604L9.13667 10.4714C8.87632 10.7317 8.45431 10.7317 8.19396 10.4714L5.99865 8.27604L2.47 11.8047C2.20966 12.065 1.78764 12.065 1.52729 11.8047C1.26694 11.5443 1.26694 11.1223 1.52729 10.862L5.52729 6.86198L5.57807 6.81641C5.83992 6.60288 6.22594 6.61792 6.47 6.86198L8.66531 9.05729L12.3893 5.33333H11.332C10.9638 5.33333 10.6653 5.03486 10.6653 4.66667C10.6653 4.29848 10.9638 4 11.332 4H13.9986Z" fill="#0C0E12" fill-opacity="0.76"/>
</svg>
