<svg width="20" height="20" viewBox="0 0 20 20" fill="none" xmlns="http://www.w3.org/2000/svg">
<path d="M16.6632 10.0167C16.663 10.0314 16.6627 10.046 16.6616 10.0606C16.6606 10.0754 16.6594 10.0901 16.6576 10.1046C16.6563 10.1144 16.6543 10.1241 16.6527 10.1339C16.6501 10.1495 16.6471 10.165 16.6437 10.1803C16.6417 10.1895 16.6396 10.1988 16.6372 10.2079C16.6228 10.264 16.6022 10.3174 16.577 10.3683C16.5377 10.4477 16.486 10.5227 16.4199 10.5888L10.5866 16.4221C10.2612 16.7475 9.73363 16.7475 9.4082 16.4221C9.08278 16.0967 9.0828 15.5692 9.4082 15.2438L13.819 10.8329H4.16406C3.70385 10.8329 3.33076 10.4598 3.33073 9.99961C3.33073 9.53937 3.70383 9.16628 4.16406 9.16628H13.819L9.4082 4.75547C9.08278 4.43004 9.0828 3.90252 9.4082 3.57709C9.73364 3.25165 10.2612 3.25165 10.5866 3.57709L16.4199 9.41042C16.4676 9.45806 16.5086 9.51193 16.5436 9.56992C16.5537 9.58655 16.5633 9.60324 16.5721 9.62038C16.5987 9.67233 16.6203 9.72721 16.6356 9.78477C16.6393 9.79858 16.6432 9.81232 16.6462 9.82627C16.6481 9.83541 16.6494 9.84469 16.651 9.85394C16.6536 9.86854 16.6557 9.8832 16.6576 9.89789C16.6594 9.91269 16.6606 9.92761 16.6616 9.94265C16.6625 9.95593 16.663 9.96922 16.6632 9.98252C16.6634 9.98819 16.6641 9.99392 16.6641 9.99961C16.6641 10.0053 16.6634 10.011 16.6632 10.0167Z" fill="#272C36"/>
</svg>
