<svg width="16" height="16" viewBox="0 0 16 16" fill="none" xmlns="http://www.w3.org/2000/svg">
<path fill-rule="evenodd" clip-rule="evenodd" d="M10 4.66699L13.0352 3.14941C13.4784 2.92778 14 3.25018 14 3.74577V10.9215C14 11.1741 13.8573 11.405 13.6315 11.5179L10 13.3337L6 11.3337L2.96484 12.8512L2.88086 12.8864C2.45832 13.0318 2 12.7195 2 12.2549V5.0791C2 4.8266 2.14265 4.59568 2.36849 4.48275L6 2.66699L10 4.66699ZM6.66667 10.1761L9.33333 11.5094V5.82454L6.66667 4.49121V10.1761ZM10.6667 5.82454V11.5094L12.6667 10.5094V4.82454L10.6667 5.82454ZM3.33333 5.49121V11.1761L5.33333 10.1761V4.49121L3.33333 5.49121Z" fill="#0C0E12" fill-opacity="0.76"/>
</svg>
