<svg width="16" height="16" viewBox="0 0 16 16" fill="none" xmlns="http://www.w3.org/2000/svg">
<path d="M5.33333 12.6666C5.70152 12.6666 6 12.9651 6 13.3333C5.99997 13.7014 5.7015 13.9999 5.33333 13.9999H2.66667C2.2985 13.9999 2.00003 13.7014 2 13.3333C2 12.9651 2.29848 12.6666 2.66667 12.6666H5.33333Z" fill="#0C0E12" fill-opacity="0.76"/>
<path fill-rule="evenodd" clip-rule="evenodd" d="M8.19531 2.19526C8.45566 1.93491 8.87767 1.93491 9.13802 2.19526L13.138 6.19526C13.3984 6.45561 13.3984 6.87763 13.138 7.13797C12.9256 7.35037 12.6056 7.38939 12.3535 7.25516L10.6094 8.99995L13.8047 12.1953C14.065 12.4556 14.065 12.8776 13.8047 13.138C13.5443 13.3983 13.1223 13.3983 12.862 13.138L9.66667 9.94266L7.92188 11.6868C8.0561 11.9388 8.01711 12.2589 7.80469 12.4713C7.54434 12.7316 7.12231 12.7316 6.86198 12.4713L2.86198 8.4713C2.60164 8.21097 2.60167 7.78895 2.86198 7.5286C3.0742 7.31638 3.3939 7.27701 3.64583 7.41076L8.07747 2.97912C7.94371 2.7272 7.98312 2.40749 8.19531 2.19526ZM4.60938 8.33328L7 10.7239L11.3906 6.33328L9 3.94266L4.60938 8.33328Z" fill="#0C0E12" fill-opacity="0.76"/>
</svg>
