<svg width="16" height="17" viewBox="0 0 16 17" fill="none" xmlns="http://www.w3.org/2000/svg">
<path fill-rule="evenodd" clip-rule="evenodd" d="M11.1457 6.12947H10.4448C10.1175 6.12947 9.85221 6.39478 9.85221 6.72206C9.85221 7.04934 10.1175 7.31465 10.4448 7.31465H12.7433C13.0706 7.31465 13.3359 7.04934 13.3359 6.72206V4.35169C13.3359 4.02441 13.0706 3.7591 12.7433 3.7591C12.4161 3.7591 12.1508 4.02441 12.1508 4.35169V5.50049C11.2202 4.09704 9.64912 3.1665 7.85895 3.1665C4.97571 3.1665 2.66927 5.57164 2.66927 8.49984C2.66927 11.428 4.97571 13.8332 7.85895 13.8332C10.1715 13.8332 12.1156 12.2827 12.7917 10.1613C12.8911 9.84945 12.7189 9.5161 12.4071 9.41671C12.0952 9.31732 11.7619 9.48954 11.6625 9.80136C11.1322 11.4653 9.62079 12.648 7.85895 12.648C5.66438 12.648 3.85446 10.8081 3.85446 8.49984C3.85446 6.19156 5.66438 4.35169 7.85895 4.35169C9.21368 4.35169 10.4185 5.04951 11.1457 6.12947Z" fill="#616161"/>
</svg>
