<svg width="14" height="14" viewBox="0 0 14 14" fill="none" xmlns="http://www.w3.org/2000/svg">
<path fill-rule="evenodd" clip-rule="evenodd" d="M6 0C9.31371 0 12 2.68629 12 6C12 7.38645 11.5277 8.66151 10.738 9.67749L13.2803 12.2197C13.5732 12.5126 13.5732 12.9874 13.2803 13.2803C12.9874 13.5732 12.5126 13.5732 12.2197 13.2803L9.67749 10.738C8.66151 11.5277 7.38645 12 6 12C2.68629 12 0 9.31371 0 6C0 2.68629 2.68629 0 6 0ZM6 1.5C3.51472 1.5 1.5 3.51472 1.5 6C1.5 8.48528 3.51472 10.5 6 10.5C8.48528 10.5 10.5 8.48528 10.5 6C10.5 3.51472 8.48528 1.5 6 1.5Z" fill="#787D87"/>
</svg>
