<svg width="32" height="32" viewBox="0 0 32 32" fill="none" xmlns="http://www.w3.org/2000/svg">
<path fill-rule="evenodd" clip-rule="evenodd" d="M15 7C19.4183 7 23 10.5817 23 15C23 16.8486 22.3703 18.5487 21.3174 19.9033L24.707 23.293C25.0975 23.6835 25.0975 24.3165 24.707 24.707C24.3165 25.0976 23.6835 25.0975 23.293 24.707L19.9033 21.3174C18.5487 22.3703 16.8486 23 15 23C10.5817 23 7 19.4183 7 15C7 10.5817 10.5817 7 15 7ZM15 9C11.6863 9 9 11.6863 9 15C9 18.3137 11.6863 21 15 21C18.3137 21 21 18.3137 21 15C21 11.6863 18.3137 9 15 9Z" fill="#787D87"/>
</svg>
