<svg width="22" height="22" viewBox="0 0 22 22" fill="none" xmlns="http://www.w3.org/2000/svg">
<path fill-rule="evenodd" clip-rule="evenodd" d="M11.0003 7.33304C13.0253 7.33304 14.6669 8.97476 14.667 10.9997C14.667 13.0247 13.0254 14.6664 11.0003 14.6664C8.97543 14.6662 7.33365 13.0246 7.33365 10.9997C7.33377 8.97487 8.9755 7.33321 11.0003 7.33304ZM11.0003 9.16637C9.98802 9.16655 9.1671 9.98739 9.16699 10.9997C9.16699 12.0121 9.98795 12.8329 11.0003 12.833C12.0128 12.833 12.8337 12.0122 12.8337 10.9997C12.8335 9.98728 12.0128 9.16637 11.0003 9.16637Z" fill="#272C36"/>
<path fill-rule="evenodd" clip-rule="evenodd" d="M12.6457 2.7506C12.8214 2.75021 12.9933 2.80422 13.1362 2.90457C13.2793 3.00517 13.3869 3.14816 13.4433 3.31188L13.9553 4.82116C14.0208 5.01194 14.1554 5.17291 14.3331 5.27322C14.5109 5.37347 14.7204 5.40611 14.9212 5.36543L16.4994 5.05211C16.6724 5.0168 16.8529 5.03666 17.0142 5.10761C17.1753 5.1786 17.3099 5.29758 17.3982 5.44778L19.0775 8.30252L19.1348 8.41979C19.1823 8.54047 19.2003 8.67124 19.1868 8.80114L19.1635 8.92915C19.1296 9.05415 19.066 9.17029 18.9773 9.26753L17.9022 10.4554C17.7677 10.6059 17.6936 10.7995 17.6936 10.9997C17.6936 11.1999 17.7678 11.3935 17.9022 11.544L19.0355 12.7319C19.1538 12.8616 19.2277 13.025 19.2458 13.1983C19.2639 13.3716 19.2257 13.5462 19.1366 13.6969L17.4573 16.5516C17.369 16.702 17.2344 16.8207 17.0732 16.8918L16.9488 16.9357C16.8221 16.9693 16.6882 16.9738 16.5585 16.9473L14.9803 16.634C14.7796 16.5933 14.5699 16.626 14.3922 16.7262C14.2144 16.8265 14.0799 16.9874 14.0144 17.1783L13.5024 18.6875L13.4504 18.8066C13.3898 18.9203 13.3026 19.0194 13.1953 19.0948L13.0825 19.1611C12.9657 19.2186 12.8357 19.2491 12.7039 19.2488H9.34513C9.20774 19.2558 9.0712 19.2291 8.94767 19.1727L8.8295 19.1074C8.67803 19.0061 8.56383 18.8581 8.50545 18.6875L7.9934 17.1783C7.92789 16.9875 7.79335 16.8264 7.61563 16.7262C7.4378 16.626 7.22825 16.5932 7.0275 16.634L5.4484 16.9473C5.31868 16.9737 5.18478 16.9694 5.0581 16.9357L4.93456 16.8918C4.77353 16.8207 4.63873 16.7018 4.55053 16.5516L2.87117 13.6969C2.7799 13.5479 2.73793 13.3742 2.75301 13.201C2.76814 13.0278 2.83876 12.8634 2.95442 12.7319L4.02148 11.544C4.15599 11.3935 4.23006 11.2 4.23006 10.9997C4.23 10.7995 4.15594 10.6059 4.02148 10.4554L2.95442 9.26753C2.86778 9.16894 2.80607 9.05172 2.77449 8.92646L2.75301 8.79845C2.74173 8.66839 2.7626 8.53784 2.81209 8.418L2.87117 8.30252L4.55053 5.44778C4.63505 5.308 4.7603 5.19591 4.9095 5.12552C5.05876 5.0552 5.22629 5.02943 5.39021 5.05211L7.01049 5.36543C7.21131 5.40619 7.42075 5.37345 7.59863 5.27322C7.77651 5.17292 7.9109 5.01209 7.97639 4.82116L8.44636 3.31188C8.50479 3.14123 8.61888 2.9933 8.77042 2.89204C8.92182 2.79096 9.10324 2.74138 9.28605 2.7506H12.6457ZM9.72647 5.36632L9.71931 5.39139L9.71036 5.41645C9.49721 6.03756 9.06316 6.55221 8.49918 6.87023C7.94053 7.18512 7.28847 7.28702 6.66227 7.16385V7.16564L5.76798 6.99197L4.82088 8.60241L5.38574 9.23082L5.38753 9.23351C5.82004 9.71716 6.06334 10.3446 6.06339 10.9997L6.05175 11.2441C5.99928 11.8097 5.76596 12.3427 5.38753 12.7659L5.38574 12.7686L4.82088 13.3961L5.77245 15.0137L6.67032 14.8356C7.22015 14.7256 7.79073 14.7904 8.30045 15.02L8.51619 15.1292L8.72119 15.2572C9.11881 15.5315 9.4367 15.9107 9.63696 16.3556L9.72737 16.583L9.72916 16.5892L10.0094 17.4155H11.9976L12.2777 16.5892L12.2804 16.583C12.4936 15.9619 12.9277 15.4472 13.4916 15.1292L13.7074 15.02C14.2166 14.7907 14.7864 14.7261 15.3357 14.8356L16.2345 15.0137L17.1663 13.4292L16.5755 12.8098L16.5558 12.7883L16.5352 12.7659C16.1571 12.3428 15.9234 11.8094 15.871 11.2441L15.8603 10.9997L15.871 10.7553C15.9235 10.19 16.157 9.6566 16.5352 9.23351L16.5424 9.22545L17.1189 8.58808L16.1754 6.98481L15.2784 7.16385L15.2775 7.16295C14.6489 7.28847 13.9935 7.18646 13.4325 6.87023C12.8687 6.55219 12.4344 6.03743 12.2213 5.41645L12.2196 5.41019L11.9385 4.58393H9.97086L9.72647 5.36632Z" fill="#272C36"/>
</svg>
