<svg width="18" height="18" viewBox="0 0 18 18" fill="none" xmlns="http://www.w3.org/2000/svg">
<path d="M8.31475 3.43741C8.5872 2.8542 9.4128 2.8542 9.68525 3.43741L10.9336 6.10979C11.0409 6.3394 11.255 6.50017 11.5046 6.53848L14.3565 6.9763C14.9656 7.0698 15.2143 7.81621 14.784 8.25931L12.6732 10.433C12.5054 10.6058 12.4292 10.8484 12.4679 11.0866L12.9596 14.1152C13.0613 14.7418 12.3993 15.2105 11.8463 14.9033L9.36622 13.5259C9.13832 13.3993 8.86168 13.3993 8.63378 13.5259L6.15374 14.9033C5.60071 15.2105 4.93868 14.7418 5.04041 14.1152L5.53209 11.0866C5.57077 10.8484 5.49458 10.6058 5.32679 10.433L3.21597 8.25931C2.7857 7.81621 3.0344 7.0698 3.64346 6.9763L6.49543 6.53848C6.74497 6.50017 6.95909 6.3394 7.06635 6.10979L8.31475 3.43741Z" fill="#EDA33C"/>
</svg>
