<svg width="18" height="18" viewBox="0 0 18 18" fill="none" xmlns="http://www.w3.org/2000/svg">
<path d="M8.31429 3.4374C8.58675 2.8542 9.41293 2.8542 9.68539 3.4374L10.9334 6.11001C11.0407 6.33959 11.2552 6.50017 11.5047 6.53847L14.356 6.97646C14.9651 7.06996 15.2141 7.81656 14.7838 8.25966L12.6729 10.4335C12.5053 10.6063 12.4292 10.8487 12.4679 11.0868L12.9593 14.1154C13.061 14.742 12.3991 15.2106 11.846 14.9035L9.36605 13.5258C9.13821 13.3993 8.86147 13.3993 8.63363 13.5258L6.15365 14.9035L6.04891 14.9518C5.52082 15.1513 4.94499 14.7029 5.04037 14.1154L5.53182 11.0868C5.56567 10.8783 5.51184 10.6663 5.38534 10.5009L5.32675 10.4335L3.21591 8.25966C2.78563 7.81656 3.03458 7.06996 3.64364 6.97646L6.49496 6.53847C6.71324 6.50496 6.90458 6.3778 7.02084 6.19277L7.06625 6.11001L8.31429 3.4374ZM8.42489 6.74502C8.10659 7.42613 7.46946 7.90626 6.72274 8.02089L5.28866 8.24062L6.40267 9.38833C6.90179 9.90233 7.12723 10.6218 7.01278 11.327L6.76522 12.8476L7.9056 12.2147L8.03451 12.1481C8.6453 11.8585 9.35438 11.8585 9.96517 12.1481L10.0941 12.2147L11.2337 12.8476L10.9869 11.327C10.8724 10.6218 11.0979 9.90233 11.597 9.38833L12.7103 8.24062L11.2769 8.02089C10.5302 7.90626 9.8931 7.42613 9.57479 6.74502L8.99984 5.51381L8.42489 6.74502Z" fill="#0C0E12" fill-opacity="0.53"/>
</svg>
