<svg width="20" height="20" viewBox="0 0 20 20" fill="none" xmlns="http://www.w3.org/2000/svg">
<g id="Common">
<path id="eye" d="M12.2917 10C12.294 10.3378 12.2217 10.6719 12.0797 10.9784C11.9378 11.285 11.7299 11.5563 11.4709 11.7731C11.2118 11.9899 10.9081 12.1468 10.5813 12.2324C10.2546 12.3181 9.91292 12.3305 9.58084 12.2687C9.24875 12.2069 8.93443 12.0724 8.66038 11.8749C8.38632 11.6775 8.15932 11.4219 7.9956 11.1264C7.83188 10.8309 7.73551 10.5029 7.71337 10.1659C7.69124 9.8288 7.74389 9.49101 7.86756 9.17667C8.03012 9.31308 8.23456 9.38956 8.44673 9.39334C8.69773 9.39312 8.93839 9.29331 9.11588 9.11582C9.29337 8.93834 9.39318 8.69768 9.3934 8.44667C9.38962 8.2345 9.31313 8.03006 9.17673 7.86751C9.52329 7.73067 9.89812 7.68092 10.2684 7.72261C10.6386 7.76431 10.993 7.89617 11.3005 8.10665C11.6079 8.31713 11.859 8.59979 12.0319 8.92989C12.2047 9.25998 12.2939 9.62742 12.2917 10ZM17.1601 11.2308C16.1376 12.9425 13.8417 15.8333 10.0001 15.8333C6.15839 15.8333 3.86256 12.9425 2.84006 11.2308C2.61752 10.8588 2.5 10.4335 2.5 10C2.5 9.56653 2.61752 9.14116 2.84006 8.76917C3.86256 7.05751 6.15839 4.16667 10.0001 4.16667C13.8417 4.16667 16.1376 7.05751 17.1601 8.76917C17.3826 9.14116 17.5001 9.56653 17.5001 10C17.5001 10.4335 17.3826 10.8588 17.1601 11.2308ZM13.5417 10C13.5417 9.29953 13.334 8.61479 12.9449 8.03236C12.5557 7.44994 12.0026 6.99599 11.3554 6.72793C10.7082 6.45987 9.99613 6.38973 9.30912 6.52639C8.6221 6.66305 7.99104 7.00036 7.49573 7.49567C7.00041 7.99098 6.6631 8.62204 6.52645 9.30906C6.38979 9.99608 6.45993 10.7082 6.72799 11.3553C6.99605 12.0025 7.44999 12.5556 8.03242 12.9448C8.61484 13.334 9.29959 13.5417 10.0001 13.5417C10.939 13.5406 11.8392 13.1671 12.5032 12.5031C13.1671 11.8392 13.5406 10.939 13.5417 10Z" fill="#37383C" fill-opacity="0.61"/>
</g>
</svg>
