<svg width="18" height="18" viewBox="0 0 18 18" fill="none" xmlns="http://www.w3.org/2000/svg">
<path d="M8.98467 14.9993C8.97148 14.999 8.95829 14.9988 8.94512 14.9978C8.93185 14.9968 8.91865 14.9958 8.90557 14.9941C8.89674 14.993 8.88801 14.9912 8.87921 14.9897C8.86514 14.9875 8.85125 14.9847 8.83746 14.9817C8.82913 14.9798 8.82083 14.978 8.81256 14.9758C8.7621 14.9628 8.71403 14.9443 8.66827 14.9216C8.5968 14.8863 8.5293 14.8398 8.46978 14.7803L3.21978 9.53027C2.92693 9.23739 2.92693 8.76261 3.21978 8.46973C3.51267 8.17684 3.98743 8.17686 4.28033 8.46973L8.25006 12.4395V3.75C8.25006 3.3358 8.58587 3.00003 9.00006 3C9.41427 3 9.75006 3.33579 9.75006 3.75V12.4395L13.7198 8.46973C14.0127 8.17684 14.4874 8.17686 14.7803 8.46973C15.0732 8.76262 15.0732 9.23738 14.7803 9.53027L9.53033 14.7803C9.48745 14.8231 9.43897 14.8601 9.38678 14.8916C9.37182 14.9006 9.35679 14.9093 9.34136 14.9172C9.29461 14.9412 9.24522 14.9606 9.19342 14.9744C9.18099 14.9777 9.16861 14.9812 9.15606 14.9839C9.14784 14.9856 9.13948 14.9868 9.13116 14.9883C9.11802 14.9906 9.10483 14.9925 9.09161 14.9941C9.07828 14.9958 9.06486 14.9969 9.05133 14.9978C9.03937 14.9986 9.02741 14.999 9.01544 14.9993C9.01034 14.9994 9.00518 15 9.00006 15C8.99491 15 8.98979 14.9994 8.98467 14.9993Z" fill="#0C0E12" fill-opacity="0.34"/>
</svg>
