<svg width="12" height="12" viewBox="0 0 12 12" fill="none" xmlns="http://www.w3.org/2000/svg">
<path d="M6.01532 0.000732422C6.02852 0.00099702 6.04171 0.00124008 6.05488 0.00219727C6.06815 0.00315953 6.08135 0.00421497 6.09443 0.00585938C6.10326 0.00697241 6.11199 0.00882627 6.12079 0.0102539C6.13486 0.0125352 6.14875 0.0152584 6.16254 0.0183105C6.17087 0.0201504 6.17917 0.0220434 6.18744 0.0241699C6.2379 0.0371704 6.28597 0.0557173 6.33173 0.0783691C6.4032 0.113681 6.4707 0.160213 6.53022 0.219727L11.7802 5.46973C12.0731 5.76261 12.0731 6.23739 11.7802 6.53027C11.4873 6.82316 11.0126 6.82314 10.7197 6.53027L6.74994 2.56055V11.25C6.74994 11.6642 6.41413 12 5.99994 12C5.58573 12 5.24994 11.6642 5.24994 11.25V2.56055L1.28022 6.53027C0.987333 6.82316 0.512565 6.82314 0.21967 6.53027C-0.0732233 6.23738 -0.0732233 5.76262 0.21967 5.46973L5.46967 0.219727C5.51255 0.176853 5.56103 0.139923 5.61323 0.108398C5.62818 0.099363 5.64321 0.0906612 5.65864 0.0827637C5.70539 0.0588038 5.75478 0.0394234 5.80658 0.0256348C5.81901 0.0223242 5.83139 0.0187746 5.84394 0.0161133C5.85216 0.0143739 5.86052 0.0131861 5.86884 0.0117188C5.88198 0.00939251 5.89517 0.007482 5.90839 0.00585938C5.92172 0.00423787 5.93514 0.00311036 5.94867 0.00219727C5.96063 0.00137811 5.97259 0.000981044 5.98456 0.000732422C5.98966 0.000630139 5.99482 0 5.99994 0C6.00509 3.81575e-07 6.01021 0.000628997 6.01532 0.000732422Z" fill="#3F6EF1"/>
</svg>
