<svg width="16" height="16" viewBox="0 0 16 16" fill="none" xmlns="http://www.w3.org/2000/svg">
<path d="M2.66734 7.98605C2.66757 7.97433 2.66779 7.9626 2.66864 7.9509C2.6695 7.9391 2.67043 7.92736 2.6719 7.91574C2.67288 7.90789 2.67453 7.90012 2.6758 7.8923C2.67783 7.8798 2.68025 7.86745 2.68296 7.85519C2.6846 7.84779 2.68628 7.84041 2.68817 7.83306C2.69973 7.78821 2.71621 7.74548 2.73635 7.7048C2.76774 7.64128 2.8091 7.58127 2.862 7.52837L7.52867 2.8617C7.78901 2.60139 8.21103 2.60139 8.47137 2.8617C8.73172 3.12205 8.7317 3.54406 8.47137 3.80441L4.94273 7.33306H12.6667C13.0349 7.33306 13.3333 7.63156 13.3334 7.99972C13.3334 8.36791 13.0349 8.66639 12.6667 8.66639H4.94273L8.47137 12.195C8.73172 12.4554 8.7317 12.8774 8.47137 13.1377C8.21102 13.3981 7.78902 13.3981 7.52867 13.1377L2.862 8.47108C2.82389 8.43297 2.79106 8.38987 2.76304 8.34347C2.75501 8.33018 2.74727 8.31682 2.74025 8.30311C2.71896 8.26155 2.70173 8.21765 2.68947 8.1716C2.68653 8.16055 2.68338 8.14956 2.68101 8.1384C2.67946 8.13108 2.67841 8.12366 2.6771 8.11626C2.67504 8.10458 2.67334 8.09286 2.6719 8.08111C2.67045 8.06926 2.66945 8.05733 2.66864 8.0453C2.66791 8.03467 2.66756 8.02404 2.66734 8.0134C2.66725 8.00886 2.66669 8.00428 2.66669 7.99972C2.66669 7.99515 2.66725 7.9906 2.66734 7.98605Z" fill="#424854"/>
</svg>
