<svg width="16" height="16" viewBox="0 0 16 16" fill="none" xmlns="http://www.w3.org/2000/svg">
<g clip-path="url(#clip0_357_3637)">
<path d="M6.66667 2C7.03486 2 7.33333 2.29848 7.33333 2.66667C7.33333 3.03486 7.03486 3.33333 6.66667 3.33333H3.33333V12.6667H12.6667V8.66667C12.6667 8.29848 12.9651 8 13.3333 8C13.7015 8 14 8.29848 14 8.66667V13.3333C14 13.7015 13.7015 14 13.3333 14H2.66667C2.29848 14 2 13.7015 2 13.3333V2.66667C2 2.29848 2.29848 2 2.66667 2H6.66667Z" fill="#424854"/>
<path d="M14 6C14 6.36819 13.7015 6.66667 13.3333 6.66667C12.9651 6.66667 12.6667 6.36819 12.6667 6V4.27604L7.13802 9.80469C6.87767 10.065 6.45566 10.065 6.19531 9.80469C5.93496 9.54434 5.93496 9.12233 6.19531 8.86198L11.724 3.33333H9.33333C8.96514 3.33333 8.66667 3.03486 8.66667 2.66667C8.66667 2.29848 8.96514 2 9.33333 2H13.3333C13.7015 2 14 2.29848 14 2.66667V6Z" fill="#424854"/>
</g>
<defs>
<clipPath id="clip0_357_3637">
<rect width="16" height="16" fill="white"/>
</clipPath>
</defs>
</svg>
